<svg width="1440" height="1024" viewBox="0 0 1440 1024" fill="none" xmlns="http://www.w3.org/2000/svg">
<rect width="1440" height="1024" fill="#EBEBEB"/>
<path d="M254.502 961.9L249.988 949.032L267.432 920.079C268.588 918.156 269.538 916.402 270.282 914.816C271.04 913.201 271.508 911.652 271.686 910.169C271.886 908.678 271.715 907.16 271.173 905.616C270.578 903.922 269.706 902.602 268.555 901.657C267.426 900.704 266.116 900.128 264.625 899.929C263.127 899.708 261.552 899.887 259.901 900.466C258.249 901.046 256.908 901.89 255.876 902.999C254.865 904.1 254.242 905.414 254.007 906.942C253.773 908.469 253.979 910.155 254.626 911.999L237.641 917.958C236.016 913.326 235.656 908.972 236.563 904.897C237.469 900.821 239.504 897.217 242.668 894.084C245.832 890.951 249.966 888.489 255.07 886.698C260.346 884.847 265.211 884.092 269.666 884.432C274.134 884.743 277.953 886.052 281.124 888.36C284.315 890.661 286.629 893.859 288.066 897.955C288.954 900.486 289.313 903.19 289.142 906.068C288.964 908.924 288.044 912.342 286.381 916.321C284.718 920.301 282.112 925.262 278.56 931.204L274.19 938.518L274.325 938.904L300.06 929.875L305.071 944.158L254.502 961.9ZM347.767 919.063L331.064 871.453L345.476 866.397L362.179 914.007L347.767 919.063ZM325.345 908.287L320.289 893.876L367.898 877.173L372.954 891.584L325.345 908.287ZM407.712 896.587L402.837 882.69L414.717 831.7L427.327 827.276L433.828 845.805L426.622 848.333L420.285 875.991L420.465 876.505L459.582 862.782L464.458 876.678L407.712 896.587ZM443.364 895.64L438.263 881.1L436.527 874.917L420.636 829.623L437.364 823.755L460.477 889.636L443.364 895.64Z" fill="#E2E3E1"/>
<path d="M1041.86 460.869L1022.91 528.067L1004.67 522.923L1018.88 472.524L1018.49 472.413L1001.31 477.062L1005.67 461.575L1025.06 456.132L1041.86 460.869ZM1065.46 542.048C1059.36 540.305 1054.49 537.408 1050.84 533.356C1047.19 529.304 1044.9 524.303 1043.98 518.352C1043.06 512.402 1043.65 505.744 1045.75 498.379C1047.86 490.992 1050.83 485.053 1054.67 480.563C1058.53 476.079 1063.05 473.115 1068.23 471.671C1073.43 470.232 1079.08 470.374 1085.18 472.094C1091.29 473.815 1096.18 476.658 1099.85 480.623C1103.53 484.565 1105.85 489.457 1106.8 495.298C1107.75 501.139 1107.18 507.742 1105.07 515.107C1102.98 522.523 1099.99 528.527 1096.1 533.12C1092.21 537.713 1087.65 540.784 1082.42 542.332C1077.21 543.864 1071.56 543.769 1065.46 542.048ZM1069.64 527.217C1072.79 528.106 1075.83 527.193 1078.77 524.479C1081.74 521.75 1084.21 516.85 1086.18 509.778C1087.48 505.163 1088.08 501.26 1087.99 498.07C1087.9 494.879 1087.24 492.356 1086.02 490.5C1084.8 488.621 1083.14 487.386 1081.04 486.794C1077.89 485.906 1074.87 486.778 1071.98 489.41C1069.09 492.042 1066.64 496.809 1064.65 503.708C1063.3 508.405 1062.66 512.403 1062.72 515.703C1062.79 518.981 1063.43 521.57 1064.64 523.47C1065.87 525.376 1067.54 526.625 1069.64 527.217ZM1167.21 525.121L1163.36 538.77L1131.86 529.888L1135.71 516.238L1167.21 525.121ZM1210.86 582.058C1205.56 580.565 1201.12 578.331 1197.52 575.356C1193.94 572.365 1191.44 568.932 1190.01 565.056C1188.57 561.181 1188.44 557.151 1189.59 552.967L1207.97 558.148C1207.62 559.445 1207.69 560.715 1208.17 561.959C1208.67 563.188 1209.52 564.277 1210.72 565.228C1211.91 566.18 1213.38 566.902 1215.13 567.395C1216.82 567.87 1218.39 567.994 1219.85 567.768C1221.31 567.519 1222.55 566.961 1223.58 566.093C1224.6 565.224 1225.3 564.098 1225.66 562.714C1226.07 561.364 1225.99 560.043 1225.43 558.753C1224.9 557.469 1223.96 556.318 1222.62 555.302C1221.27 554.286 1219.62 553.5 1217.65 552.945L1210.83 551.02L1214.38 538.421L1221.2 540.345C1223.02 540.857 1224.7 541.012 1226.24 540.81C1227.81 540.615 1229.12 540.1 1230.19 539.266C1231.27 538.438 1231.99 537.343 1232.35 535.98C1232.74 534.674 1232.75 533.425 1232.38 532.234C1232.01 531.043 1231.31 529.996 1230.29 529.094C1229.29 528.199 1228.03 527.535 1226.5 527.103C1224.83 526.634 1223.26 526.51 1221.78 526.731C1220.33 526.957 1219.08 527.491 1218.04 528.331C1217 529.171 1216.28 530.266 1215.87 531.616L1198.42 526.694C1199.6 522.588 1201.75 519.274 1204.87 516.754C1208.01 514.239 1211.79 512.637 1216.21 511.948C1220.63 511.258 1225.38 511.629 1230.46 513.06C1235.42 514.46 1239.57 516.539 1242.9 519.297C1246.25 522.06 1248.59 525.221 1249.9 528.778C1251.24 532.32 1251.36 535.98 1250.27 539.758C1249.25 543.533 1247.09 546.253 1243.79 547.919C1240.51 549.591 1236.81 550.082 1232.68 549.391L1232.53 549.915C1237.79 552.036 1241.4 554.849 1243.36 558.354C1245.33 561.837 1245.72 565.629 1244.51 569.729C1243.42 573.673 1241.26 576.829 1238.02 579.197C1234.8 581.571 1230.83 583.027 1226.12 583.565C1221.44 584.108 1216.35 583.606 1210.86 582.058Z" fill="#E2E3E1"/>
<path d="M944.681 864.799C940.692 864.002 937.028 862.621 933.689 860.656C930.377 858.673 927.611 856.046 925.39 852.775C923.17 849.504 921.705 845.526 920.995 840.842C920.308 836.162 920.597 830.715 921.861 824.502C922.992 818.957 924.703 814.107 926.993 809.953C929.305 805.802 932.077 802.428 935.308 799.829C938.561 797.234 942.18 795.477 946.165 794.558C950.154 793.617 954.388 793.594 958.868 794.489C963.904 795.495 968.146 797.351 971.592 800.055C975.038 802.76 977.572 805.967 979.195 809.675C980.845 813.365 981.47 817.198 981.07 821.174L962.75 817.514C962.714 815.49 962.016 813.879 960.656 812.68C959.323 811.464 957.676 810.66 955.715 810.268C951.815 809.488 948.613 810.61 946.108 813.633C943.626 816.66 941.811 820.932 940.662 826.45L941.063 826.53C942.351 824.609 944.024 823.078 946.083 821.936C948.142 820.795 950.422 820.057 952.922 819.722C955.423 819.387 957.977 819.48 960.584 820.001C964.73 820.829 968.164 822.489 970.888 824.98C973.634 827.476 975.551 830.524 976.64 834.125C977.728 837.726 977.842 841.62 976.983 845.805C976.026 850.713 974.01 854.771 970.935 857.981C967.882 861.195 964.092 863.405 959.564 864.609C955.035 865.813 950.075 865.877 944.681 864.799ZM947.353 850.732C949.202 851.101 950.925 851.005 952.521 850.443C954.139 849.886 955.496 848.952 956.592 847.641C957.71 846.335 958.445 844.743 958.797 842.867C959.198 840.977 959.131 839.225 958.595 837.612C958.087 835.981 957.193 834.597 955.914 833.461C954.656 832.329 953.103 831.578 951.253 831.208C949.894 830.937 948.586 830.93 947.329 831.189C946.099 831.43 944.971 831.912 943.946 832.634C942.925 833.334 942.05 834.237 941.319 835.342C940.615 836.43 940.112 837.674 939.809 839.073C939.457 840.95 939.546 842.706 940.077 844.342C940.608 845.977 941.502 847.361 942.759 848.493C944.016 849.625 945.547 850.371 947.353 850.732ZM1047.47 809.827L1009.03 887.389L993.383 884.263L1031.82 806.701L1047.47 809.827ZM1057 886.266L1059.67 872.894L1089.43 856.869C1091.41 855.804 1093.12 854.778 1094.57 853.793C1096.04 852.79 1097.24 851.695 1098.15 850.509C1099.08 849.328 1099.7 847.935 1100.02 846.33C1100.37 844.57 1100.3 842.99 1099.79 841.59C1099.3 840.195 1098.47 839.032 1097.29 838.101C1096.11 837.147 1094.66 836.499 1092.95 836.156C1091.23 835.813 1089.65 835.856 1088.19 836.284C1086.76 836.717 1085.56 837.53 1084.58 838.725C1083.6 839.92 1082.92 841.475 1082.53 843.392L1064.88 839.866C1065.84 835.052 1067.75 831.122 1070.61 828.077C1073.47 825.033 1077.05 822.968 1081.37 821.884C1085.69 820.8 1090.5 820.788 1095.81 821.848C1101.29 822.943 1105.86 824.772 1109.52 827.334C1113.21 829.879 1115.83 832.951 1117.38 836.552C1118.95 840.158 1119.31 844.089 1118.46 848.346C1117.94 850.976 1116.87 853.485 1115.26 855.875C1113.65 858.242 1111.11 860.714 1107.66 863.291C1104.2 865.868 1099.43 868.808 1093.34 872.112L1085.86 876.179L1085.78 876.58L1112.52 881.923L1109.55 896.766L1057 886.266Z" fill="#E2E3E1"/>
<path d="M275.326 87.3528L261.647 155.818L243.06 152.104L253.319 100.756L252.918 100.675L236.151 106.642L239.304 90.8634L258.21 83.9331L275.326 87.3528ZM316.922 157.127L326.807 107.651L341.784 110.643L331.899 160.12L316.922 157.127ZM303.119 136.431L306.111 121.454L355.588 131.339L352.595 146.316L303.119 136.431ZM425.729 117.402L412.05 185.867L393.463 182.154L403.722 130.805L403.321 130.725L386.554 136.692L389.706 120.913L408.612 113.982L425.729 117.402Z" fill="#E2E3E1"/>
<path d="M94.7896 534.429L121.861 598.785L104.39 606.135L84.0858 557.868L83.7087 558.027L73.1734 572.37L66.9342 557.538L78.7006 541.197L94.7896 534.429ZM139.553 515.6L166.624 579.956L149.153 587.305L128.849 539.038L128.472 539.197L117.937 553.54L111.698 538.708L123.464 522.367L139.553 515.6ZM212.983 514.89L218.482 527.963L188.315 540.652L182.816 527.58L212.983 514.89ZM283.734 531.729C278.539 533.914 273.559 535.059 268.796 535.165C264.053 535.261 259.927 534.42 256.417 532.642C252.929 530.855 250.453 528.223 248.99 524.745C247.871 522.084 247.509 519.377 247.903 516.622C248.319 513.858 249.354 511.278 251.008 508.881C252.654 506.462 254.781 504.458 257.391 502.867L257.18 502.364C253.25 503.278 249.55 502.923 246.081 501.3C242.624 499.648 240.143 497.03 238.636 493.448C237.217 490.075 237.025 486.63 238.06 483.112C239.087 479.574 241.137 476.27 244.21 473.202C247.284 470.134 251.188 467.604 255.922 465.613C260.657 463.621 265.2 462.61 269.551 462.58C273.894 462.528 277.689 463.373 280.936 465.114C284.174 466.833 286.498 469.369 287.908 472.721C289.424 476.324 289.539 479.938 288.252 483.561C286.965 487.184 284.652 490.068 281.314 492.212L281.525 492.715C284.467 491.971 287.377 491.856 290.256 492.371C293.127 492.864 295.695 493.929 297.961 495.565C300.227 497.2 301.92 499.348 303.039 502.009C304.502 505.487 304.642 509.102 303.459 512.854C302.297 516.597 300.012 520.135 296.606 523.466C293.22 526.789 288.93 529.543 283.734 531.729ZM278.658 519.662C280.313 518.966 281.639 518.014 282.635 516.806C283.631 515.598 284.248 514.253 284.488 512.771C284.74 511.26 284.553 509.761 283.927 508.273C283.302 506.786 282.37 505.625 281.131 504.79C279.913 503.946 278.528 503.468 276.977 503.356C275.417 503.223 273.81 503.505 272.155 504.201C270.521 504.889 269.195 505.841 268.179 507.057C267.174 508.244 266.537 509.573 266.267 511.042C266.019 512.503 266.207 513.977 266.833 515.464C267.459 516.951 268.385 518.128 269.611 518.992C270.859 519.848 272.267 520.353 273.836 520.507C275.417 520.631 277.024 520.349 278.658 519.662ZM267.079 492.134C268.545 491.518 269.716 490.667 270.592 489.584C271.468 488.501 272.006 487.288 272.206 485.947C272.406 484.605 272.224 483.264 271.66 481.923C271.096 480.582 270.273 479.535 269.192 478.782C268.102 478.008 266.868 477.565 265.49 477.454C264.103 477.323 262.676 477.565 261.21 478.182C259.764 478.79 258.593 479.64 257.697 480.733C256.812 481.795 256.265 482.987 256.057 484.307C255.839 485.607 256.012 486.927 256.576 488.268C257.14 489.609 257.972 490.677 259.071 491.472C260.161 492.246 261.403 492.71 262.799 492.862C264.207 492.985 265.633 492.743 267.079 492.134Z" fill="#E2E3E1"/>
<path d="M1082.17 193.814C1076.97 195.098 1072.12 195.323 1067.63 194.487C1063.15 193.624 1059.36 191.857 1056.24 189.185C1053.15 186.507 1051.06 183.066 1049.97 178.863L1067.85 174.454C1068.49 176.777 1069.86 178.418 1071.94 179.378C1074.05 180.333 1076.32 180.511 1078.74 179.912C1080.62 179.449 1082.18 178.644 1083.42 177.496C1084.65 176.326 1085.49 174.901 1085.94 173.221C1086.39 171.541 1086.37 169.722 1085.86 167.764C1085.39 165.772 1084.57 164.149 1083.4 162.894C1082.21 161.617 1080.81 160.758 1079.18 160.318C1077.54 159.855 1075.79 159.855 1073.91 160.318C1071.97 160.797 1070.29 161.715 1068.87 163.072C1067.46 164.401 1066.58 165.989 1066.21 167.834L1049.28 168.641L1042.72 130.652L1088.26 119.418L1091.89 134.114L1061.44 141.625L1063.8 156.912L1064.2 156.814C1064.75 154.501 1066.16 152.35 1068.44 150.362C1070.7 148.352 1073.56 146.922 1077 146.073C1081.04 145.077 1084.87 145.127 1088.48 146.225C1092.12 147.316 1095.27 149.291 1097.92 152.15C1100.58 154.98 1102.43 158.55 1103.47 162.858C1104.66 167.575 1104.57 172.045 1103.2 176.268C1101.84 180.464 1099.38 184.103 1095.81 187.184C1092.24 190.243 1087.69 192.453 1082.17 193.814ZM1150.6 160.221L1148.79 148.309L1140.79 157.446L1133.2 149.484L1142.59 141.973L1130.79 139.687L1133.8 129.113L1145.13 133.481L1141.19 122.092L1151.79 119.479L1153.6 131.391L1161.6 122.255L1169.18 130.216L1159.8 137.728L1171.6 140.014L1168.59 150.588L1157.26 146.219L1161.19 157.609L1150.6 160.221ZM1211 161.054L1207.73 147.814L1227.86 120.658C1229.19 118.855 1230.31 117.199 1231.2 115.691C1232.11 114.156 1232.72 112.659 1233.04 111.199C1233.38 109.734 1233.36 108.207 1232.96 106.618C1232.53 104.875 1231.79 103.478 1230.74 102.428C1229.7 101.371 1228.45 100.673 1226.99 100.332C1225.52 99.9693 1223.93 99.9974 1222.23 100.416C1220.54 100.836 1219.12 101.548 1217.99 102.553C1216.88 103.553 1216.13 104.802 1215.75 106.3C1215.37 107.798 1215.41 109.496 1215.88 111.393L1198.41 115.704C1197.23 110.938 1197.29 106.57 1198.58 102.599C1199.87 98.6292 1202.24 95.2356 1205.69 92.4187C1209.14 89.6018 1213.49 87.5456 1218.74 86.2502C1224.17 84.9112 1229.08 84.6235 1233.49 85.387C1237.9 86.1229 1241.58 87.7909 1244.52 90.3908C1247.47 92.9853 1249.47 96.3899 1250.51 100.604C1251.15 103.208 1251.25 105.934 1250.81 108.783C1250.36 111.609 1249.12 114.924 1247.08 118.726C1245.05 122.529 1241.98 127.218 1237.88 132.795L1232.83 139.658L1232.92 140.055L1259.4 133.524L1263.03 148.22L1211 161.054Z" fill="#E2E3E1"/>
<path d="M613.812 450.226C608.669 448.277 604.434 445.663 601.107 442.385C597.809 439.093 595.616 435.455 594.526 431.469C593.436 427.483 593.65 423.456 595.167 419.389L613.018 426.155C612.564 427.417 612.52 428.688 612.885 429.969C613.28 431.237 614.031 432.396 615.14 433.448C616.248 434.5 617.652 435.348 619.352 435.993C620.988 436.613 622.542 436.874 624.014 436.775C625.493 436.655 626.781 436.208 627.877 435.432C628.973 434.657 629.764 433.595 630.25 432.248C630.771 430.939 630.81 429.617 630.368 428.283C629.947 426.957 629.112 425.729 627.863 424.599C626.614 423.469 625.033 422.542 623.121 421.817L616.49 419.304L621.129 407.063L627.76 409.576C629.524 410.245 631.184 410.546 632.741 410.479C634.318 410.421 635.672 410.023 636.803 409.285C637.954 408.555 638.769 407.527 639.247 406.201C639.752 404.934 639.871 403.691 639.604 402.472C639.337 401.252 638.734 400.149 637.796 399.161C636.879 398.182 635.677 397.41 634.189 396.846C632.574 396.234 631.02 395.973 629.527 396.064C628.056 396.163 626.766 396.585 625.656 397.331C624.547 398.077 623.732 399.105 623.212 400.415L606.253 393.987C607.788 390 610.22 386.887 613.547 384.648C616.896 382.418 620.803 381.152 625.267 380.851C629.732 380.55 634.43 381.334 639.36 383.203C644.184 385.031 648.135 387.464 651.213 390.502C654.312 393.548 656.359 396.9 657.354 400.559C658.379 404.204 658.184 407.861 656.769 411.529C655.426 415.201 653.036 417.722 649.6 419.093C646.185 420.473 642.453 420.638 638.402 419.589L638.209 420.099C643.262 422.67 646.613 425.787 648.263 429.451C649.921 433.093 649.971 436.904 648.414 440.883C646.986 444.716 644.554 447.671 641.117 449.747C637.703 451.831 633.626 452.935 628.888 453.06C624.172 453.192 619.146 452.248 613.812 450.226ZM714.253 442.358L709.227 455.619L678.624 444.02L683.65 430.759L714.253 442.358ZM727.596 492.331L732.429 479.579L764.42 468.663C766.542 467.936 768.399 467.206 769.99 466.472C771.61 465.725 772.965 464.841 774.057 463.821C775.17 462.809 776.016 461.538 776.596 460.007C777.232 458.329 777.415 456.757 777.143 455.293C776.893 453.837 776.262 452.553 775.249 451.44C774.245 450.306 772.925 449.429 771.289 448.809C769.652 448.188 768.082 447.97 766.579 448.154C765.096 448.345 763.773 448.95 762.61 449.967C761.447 450.985 760.519 452.407 759.826 454.235L742.994 447.855C744.734 443.265 747.263 439.703 750.581 437.169C753.899 434.635 757.777 433.188 762.215 432.829C766.654 432.469 771.402 433.248 776.46 435.165C781.688 437.146 785.896 439.701 789.085 442.83C792.304 445.946 794.382 449.407 795.321 453.214C796.281 457.03 795.992 460.967 794.454 465.026C793.503 467.534 792.036 469.833 790.052 471.925C788.077 473.996 785.172 476.018 781.337 477.991C777.502 479.965 772.313 482.081 765.769 484.341L757.716 487.122L757.571 487.504L783.073 497.17L777.709 511.324L727.596 492.331Z" fill="#E2E3E1"/>
<path d="M571.543 242.172L578.176 276.445L568.872 278.246L563.897 252.542L563.696 252.58L557.067 258.516L555.538 250.618L562.975 243.831L571.543 242.172ZM599.027 272.896C596.394 273.406 593.967 273.395 591.746 272.864C589.534 272.32 587.684 271.341 586.195 269.928C584.717 268.513 583.761 266.742 583.326 264.615L592.363 262.866C592.625 264.042 593.265 264.896 594.283 265.429C595.311 265.959 596.439 266.105 597.666 265.867C598.615 265.684 599.412 265.321 600.06 264.779C600.705 264.226 601.162 263.536 601.43 262.708C601.698 261.881 601.73 260.972 601.527 259.981C601.344 258.975 600.975 258.144 600.419 257.487C599.862 256.819 599.182 256.355 598.379 256.094C597.574 255.821 596.697 255.777 595.749 255.96C594.767 256.15 593.904 256.566 593.16 257.208C592.425 257.836 591.944 258.607 591.715 259.519L583.238 259.493L580.923 240.357L603.95 235.9L605.388 243.33L589.992 246.31L590.787 254.004L590.987 253.965C591.322 252.824 592.082 251.786 593.267 250.85C594.449 249.904 595.911 249.262 597.651 248.925C599.693 248.53 601.603 248.652 603.382 249.292C605.172 249.929 606.692 250.995 607.942 252.489C609.201 253.97 610.035 255.8 610.445 257.977C610.918 260.363 610.76 262.592 609.969 264.667C609.187 266.728 607.866 268.483 606.005 269.931C604.142 271.368 601.816 272.356 599.027 272.896ZM634.046 257.854L633.442 251.86L629.216 256.219L625.631 252.052L630.507 248.539L624.673 247.098L626.443 241.894L631.991 244.362L630.315 238.575L635.67 237.539L636.275 243.533L640.501 239.174L644.085 243.341L639.209 246.854L645.044 248.295L643.273 253.499L637.726 251.03L639.402 256.818L634.046 257.854ZM677.999 257.611C675.366 258.121 672.939 258.11 670.718 257.58C668.506 257.035 666.656 256.057 665.167 254.643C663.689 253.228 662.733 251.457 662.298 249.33L671.335 247.581C671.597 248.757 672.237 249.612 673.255 250.144C674.283 250.674 675.411 250.82 676.638 250.583C677.587 250.399 678.384 250.036 679.032 249.494C679.677 248.941 680.134 248.251 680.402 247.424C680.67 246.596 680.702 245.687 680.499 244.696C680.316 243.69 679.947 242.859 679.391 242.202C678.834 241.535 678.154 241.07 677.351 240.809C676.546 240.537 675.669 240.492 674.721 240.676C673.739 240.866 672.876 241.282 672.132 241.923C671.397 242.552 670.916 243.322 670.687 244.234L662.21 244.208L659.895 225.072L682.922 220.615L684.36 228.046L668.964 231.026L669.759 238.719L669.959 238.68C670.294 237.539 671.054 236.501 672.239 235.566C673.421 234.619 674.883 233.977 676.623 233.641C678.665 233.245 680.575 233.368 682.354 234.007C684.144 234.645 685.664 235.71 686.914 237.205C688.173 238.686 689.007 240.515 689.417 242.693C689.89 245.078 689.732 247.308 688.941 249.382C688.159 251.443 686.838 253.198 684.977 254.646C683.114 256.083 680.788 257.072 677.999 257.611Z" fill="#E2E3E1"/>
<path d="M91.0491 206.707C92.9512 207.427 94.6375 208.413 96.1081 209.663C97.5828 210.902 98.7299 212.413 99.5496 214.194C100.38 215.979 100.774 218.049 100.733 220.402C100.706 222.75 100.142 225.392 99.0411 228.329C98.0369 231.011 96.7899 233.291 95.3004 235.169C93.8254 237.04 92.1771 238.487 90.3554 239.51C88.5443 240.537 86.6111 241.117 84.5557 241.25C82.515 241.375 80.4214 241.032 78.275 240.218C75.8629 239.304 73.9182 238.038 72.4409 236.421C70.9636 234.804 69.979 233.009 69.4872 231.036C68.9954 229.063 69.0216 227.086 69.5659 225.105L78.3005 228.416C78.1384 229.484 78.3341 230.379 78.8876 231.099C79.445 231.808 80.1913 232.34 81.1264 232.695C82.9965 233.404 84.6681 233.114 86.1409 231.825C87.6285 230.529 88.891 228.529 89.9286 225.823L89.7374 225.75C88.9444 226.592 87.9932 227.21 86.884 227.604C85.7747 227.998 84.5897 228.174 83.3289 228.134C82.0682 228.094 80.8162 227.838 79.573 227.367C77.6072 226.622 76.0529 225.528 74.9101 224.086C73.7714 222.634 73.0796 220.98 72.8348 219.125C72.5939 217.26 72.8428 215.337 73.5812 213.356C74.4486 211.036 75.765 209.214 77.5306 207.89C79.2962 206.566 81.3452 205.793 83.6775 205.571C86.0098 205.349 88.467 205.728 91.0491 206.707ZM88.5757 213.425C87.6937 213.091 86.8308 212.995 85.9871 213.137C85.154 213.283 84.41 213.627 83.755 214.168C83.1107 214.714 82.6288 215.424 82.3091 216.3C81.9895 217.175 81.8901 218.031 82.0108 218.866C82.1422 219.706 82.4661 220.455 82.9825 221.112C83.5095 221.774 84.214 222.272 85.096 222.606C85.7442 222.852 86.3868 222.968 87.024 222.954C87.6651 222.93 88.2661 222.787 88.827 222.525C89.4025 222.257 89.9065 221.889 90.3391 221.421C90.7863 220.947 91.1275 220.383 91.3625 219.731C91.6821 218.856 91.7762 217.998 91.6449 217.159C91.5135 216.319 91.1843 215.568 90.6573 214.907C90.1302 214.245 89.4364 213.751 88.5757 213.425ZM110.362 252.89C107.402 251.756 105.101 250.1 103.459 247.922C101.818 245.744 100.898 243.154 100.699 240.15C100.501 237.146 101.086 233.855 102.454 230.278C103.826 226.691 105.566 223.863 107.675 221.794C109.794 219.729 112.175 218.45 114.816 217.957C117.469 217.467 120.277 217.784 123.242 218.908C126.207 220.032 128.518 221.661 130.176 223.796C131.837 225.921 132.777 228.458 132.996 231.409C133.214 234.36 132.639 237.624 131.272 241.201C129.906 244.803 128.154 247.663 126.014 249.781C123.875 251.899 121.469 253.229 118.796 253.771C116.138 254.307 113.327 254.014 110.362 252.89ZM113.093 245.686C114.623 246.265 116.179 245.944 117.761 244.72C119.357 243.49 120.8 241.157 122.091 237.721C122.94 235.479 123.412 233.561 123.505 231.968C123.599 230.375 123.381 229.09 122.853 228.112C122.328 227.123 121.556 226.435 120.536 226.049C119.005 225.469 117.463 225.771 115.908 226.956C114.353 228.141 112.929 230.408 111.635 233.758C110.758 236.039 110.263 238.002 110.15 239.648C110.04 241.284 110.246 242.601 110.766 243.601C111.297 244.604 112.073 245.299 113.093 245.686ZM161.784 248.901L159.271 255.532L143.97 249.732L146.483 243.102L161.784 248.901ZM181.038 279.166C178.466 278.192 176.349 276.885 174.686 275.246C173.037 273.6 171.94 271.781 171.395 269.788C170.85 267.795 170.957 265.782 171.715 263.748L180.641 267.131C180.414 267.762 180.392 268.398 180.575 269.038C180.772 269.672 181.148 270.252 181.702 270.778C182.256 271.304 182.958 271.728 183.808 272.05C184.626 272.36 185.403 272.49 186.139 272.441C186.879 272.381 187.522 272.157 188.07 271.77C188.618 271.382 189.014 270.851 189.257 270.178C189.517 269.523 189.537 268.862 189.316 268.195C189.106 267.532 188.688 266.918 188.064 266.353C187.439 265.788 186.649 265.325 185.692 264.962L182.377 263.706L184.697 257.585L188.012 258.842C188.894 259.176 189.724 259.326 190.502 259.293C191.291 259.264 191.968 259.065 192.533 258.696C193.109 258.331 193.517 257.817 193.756 257.154C194.008 256.52 194.067 255.899 193.934 255.289C193.8 254.68 193.499 254.128 193.03 253.634C192.572 253.144 191.97 252.759 191.227 252.477C190.419 252.171 189.642 252.04 188.896 252.085C188.16 252.135 187.515 252.346 186.96 252.719C186.406 253.092 185.998 253.606 185.738 254.261L177.258 251.047C178.026 249.053 179.242 247.497 180.906 246.378C182.58 245.262 184.534 244.629 186.766 244.479C188.998 244.328 191.347 244.72 193.812 245.655C196.224 246.569 198.2 247.786 199.739 249.305C201.288 250.828 202.312 252.504 202.809 254.333C203.321 256.155 203.224 257.984 202.517 259.818C201.845 261.654 200.65 262.915 198.932 263.6C197.225 264.29 195.358 264.372 193.333 263.848L193.237 264.103C195.763 265.389 197.439 266.947 198.264 268.779C199.092 270.6 199.118 272.505 198.339 274.495C197.625 276.412 196.409 277.889 194.691 278.927C192.983 279.969 190.945 280.521 188.576 280.583C186.218 280.65 183.705 280.177 181.038 279.166ZM212.623 291.648C209.663 290.514 207.362 288.858 205.72 286.68C204.078 284.502 203.159 281.912 202.96 278.908C202.762 275.904 203.347 272.613 204.715 269.036C206.087 265.449 207.827 262.621 209.936 260.552C212.055 258.487 214.435 257.208 217.077 256.715C219.73 256.225 222.538 256.542 225.503 257.666C228.468 258.79 230.779 260.419 232.436 262.554C234.098 264.679 235.038 267.216 235.257 270.167C235.475 273.118 234.9 276.382 233.532 279.959C232.167 283.561 230.415 286.421 228.275 288.539C226.136 290.657 223.73 291.987 221.057 292.529C218.399 293.065 215.588 292.772 212.623 291.648ZM215.354 284.444C216.884 285.023 218.44 284.702 220.022 283.478C221.618 282.248 223.061 279.915 224.352 276.479C225.201 274.237 225.673 272.319 225.766 270.726C225.86 269.133 225.642 267.848 225.113 266.87C224.589 265.881 223.817 265.193 222.797 264.807C221.266 264.227 219.724 264.529 218.169 265.714C216.614 266.899 215.189 269.166 213.896 272.516C213.019 274.797 212.524 276.76 212.411 278.406C212.301 280.042 212.507 281.359 213.027 282.359C213.558 283.362 214.334 284.057 215.354 284.444Z" fill="#E2E3E1"/>
<path d="M1229.52 313.187L1217.15 345.83L1208.29 342.472L1217.57 317.989L1217.38 317.917L1208.62 319.482L1211.47 311.959L1221.36 310.094L1229.52 313.187ZM1256.37 338.236L1253.86 344.867L1238.56 339.068L1241.07 332.437L1256.37 338.236ZM1291.42 336.645L1279.04 369.288L1270.18 365.929L1279.46 341.447L1279.27 341.374L1270.51 342.939L1273.36 335.416L1283.26 333.552L1291.42 336.645Z" fill="#E2E3E1"/>
<path d="M1133.42 697.554L1139.68 731.898L1130.35 733.596L1125.66 707.838L1125.46 707.875L1118.77 713.738L1117.33 705.823L1124.84 699.118L1133.42 697.554ZM1161.17 728.468C1159.17 728.833 1157.21 728.866 1155.3 728.568C1153.39 728.256 1151.62 727.545 1149.99 726.433C1148.35 725.322 1146.94 723.743 1145.75 721.696C1144.57 719.648 1143.7 717.063 1143.14 713.942C1142.64 711.156 1142.54 708.586 1142.84 706.233C1143.15 703.878 1143.82 701.799 1144.84 699.996C1145.88 698.19 1147.24 696.707 1148.92 695.545C1150.6 694.373 1152.56 693.582 1154.81 693.173C1157.34 692.712 1159.65 692.794 1161.75 693.416C1163.85 694.038 1165.62 695.062 1167.06 696.486C1168.5 697.897 1169.5 699.564 1170.05 701.486L1160.86 703.16C1160.47 702.226 1159.85 701.606 1158.99 701.299C1158.15 700.979 1157.24 700.909 1156.25 701.088C1154.3 701.444 1153.01 702.556 1152.41 704.422C1151.81 706.286 1151.75 708.607 1152.24 711.383L1152.44 711.347C1152.68 710.216 1153.18 709.196 1153.92 708.286C1154.67 707.376 1155.6 706.613 1156.7 705.997C1157.8 705.381 1159 704.953 1160.31 704.715C1162.39 704.336 1164.29 704.475 1166.02 705.131C1167.75 705.785 1169.2 706.849 1170.37 708.322C1171.54 709.795 1172.31 711.584 1172.69 713.688C1173.14 716.145 1172.96 718.403 1172.12 720.462C1171.29 722.518 1169.94 724.243 1168.05 725.638C1166.17 727.032 1163.88 727.975 1161.17 728.468ZM1159.82 721.437C1160.75 721.268 1161.53 720.906 1162.17 720.351C1162.82 719.793 1163.28 719.109 1163.55 718.298C1163.82 717.485 1163.87 716.61 1163.69 715.673C1163.53 714.72 1163.17 713.919 1162.63 713.267C1162.09 712.603 1161.42 712.124 1160.62 711.832C1159.82 711.537 1158.96 711.475 1158.04 711.644C1157.35 711.768 1156.74 712.006 1156.21 712.358C1155.68 712.696 1155.25 713.128 1154.9 713.653C1154.56 714.166 1154.32 714.747 1154.18 715.395C1154.05 716.031 1154.05 716.702 1154.17 717.408C1154.35 718.345 1154.71 719.145 1155.26 719.807C1155.81 720.47 1156.48 720.948 1157.27 721.243C1158.07 721.537 1158.91 721.602 1159.82 721.437ZM1198.82 683.978L1195.24 727.113L1187.39 728.542L1190.97 685.407L1198.82 683.978ZM1216.02 712.447L1214.7 705.202L1224.56 680.952L1231.13 679.754L1232.89 689.413L1229.14 690.098L1223.84 703.26L1223.89 703.528L1244.28 699.813L1245.6 707.058L1216.02 712.447ZM1233.7 714.77L1232.32 707.19L1231.95 704.001L1227.65 680.39L1236.37 678.801L1242.62 713.145L1233.7 714.77Z" fill="#E2E3E1"/>
<path d="M523.776 664.884L520.87 658.118L525.061 632.278L531.2 629.642L535.074 638.663L531.566 640.17L529.346 654.182L529.454 654.433L548.499 646.255L551.405 653.021L523.776 664.884ZM541.528 663.198L538.488 656.119L537.412 653.093L527.943 631.04L536.087 627.543L549.86 659.621L541.528 663.198ZM573.562 626.59L576.36 633.105L561.324 639.562L558.526 633.046L573.562 626.59ZM597.158 639.312L599.044 608.97L598.963 608.782L584.178 615.131L581.192 608.177L604.999 597.955L607.985 604.909L606.117 635.466L597.158 639.312Z" fill="#E2E3E1"/>
<path d="M216.066 709.917L203.694 742.56L194.832 739.202L204.111 714.719L203.92 714.647L195.16 716.212L198.011 708.689L207.905 706.824L216.066 709.917ZM222.979 750.38C220.407 749.405 218.29 748.098 216.626 746.459C214.977 744.814 213.881 742.994 213.336 741.001C212.791 739.008 212.897 736.995 213.656 734.961L222.582 738.344C222.355 738.975 222.333 739.611 222.515 740.251C222.713 740.885 223.088 741.465 223.642 741.991C224.197 742.517 224.899 742.941 225.749 743.263C226.567 743.573 227.344 743.704 228.079 743.655C228.819 743.595 229.463 743.371 230.011 742.983C230.559 742.595 230.955 742.065 231.198 741.391C231.458 740.736 231.478 740.075 231.257 739.408C231.046 738.745 230.629 738.131 230.004 737.566C229.38 737.002 228.589 736.538 227.633 736.176L224.318 734.919L226.637 728.798L229.953 730.055C230.835 730.389 231.665 730.54 232.443 730.507C233.232 730.477 233.909 730.278 234.474 729.909C235.05 729.544 235.457 729.03 235.696 728.367C235.949 727.734 236.008 727.112 235.874 726.503C235.741 725.893 235.44 725.341 234.971 724.848C234.512 724.358 233.911 723.972 233.167 723.69C232.36 723.384 231.583 723.254 230.836 723.299C230.101 723.348 229.455 723.559 228.901 723.933C228.346 724.306 227.939 724.82 227.678 725.474L219.199 722.261C219.967 720.267 221.182 718.71 222.846 717.591C224.521 716.476 226.474 715.843 228.706 715.692C230.939 715.542 233.287 715.934 235.753 716.868C238.165 717.782 240.14 718.999 241.679 720.518C243.229 722.041 244.252 723.717 244.75 725.546C245.262 727.369 245.165 729.197 244.457 731.032C243.786 732.867 242.591 734.128 240.873 734.814C239.165 735.503 237.299 735.586 235.274 735.061L235.177 735.316C237.704 736.602 239.379 738.161 240.204 739.992C241.033 741.813 241.058 743.719 240.28 745.708C239.566 747.625 238.349 749.102 236.631 750.14C234.924 751.183 232.886 751.735 230.517 751.797C228.158 751.863 225.646 751.391 222.979 750.38ZM261.136 759.228L270.077 735.638L277.218 738.344L268.277 761.934L261.136 759.228ZM256.029 747.886L258.735 740.745L282.325 749.686L279.619 756.827L256.029 747.886ZM291.304 769.932L293.913 763.046L314.876 747.367L321.124 749.735L317.645 758.916L314.074 757.563L302.745 766.102L302.648 766.357L322.03 773.703L319.42 780.589L291.304 769.932ZM305.246 781.05L307.976 773.845L309.303 770.921L317.809 748.479L326.097 751.62L313.725 784.263L305.246 781.05Z" fill="#E2E3E1"/>
</svg>
